name C:\Users\u0101727\Documents\MyRepositories\upper-imu-dc\Results\main_tracking\Case_41\FLX01_linearAccelerations_bodyFrame.mot
datacolumns 4
datarows 82
range 0.51000000 1.32000000
endheader 
time	radius_imu_x	radius_imu_y	radius_imu_z	
          0.51000000	         -0.15604828	         10.22497025	         -1.53438734	
          0.52000000	         -0.10123708	         10.24479653	         -1.55579971	
          0.53000000	         -0.07730570	         10.25971270	         -1.54859488	
          0.54000000	         -0.07099478	         10.27577964	         -1.50176947	
          0.55000000	         -0.05163905	         10.29740668	         -1.41613722	
          0.56000000	         -0.05840164	         10.31661557	         -1.27897217	
          0.57000000	         -0.07299930	         10.33870765	         -1.09814707	
          0.58000000	         -0.07005557	         10.35274673	         -0.95744032	
          0.59000000	         -0.14161913	         10.37239294	         -0.74689738	
          0.60000000	         -0.22736261	         10.38831387	         -0.56136615	
          0.61000000	         -0.32874501	         10.40405227	         -0.40377713	
          0.62000000	         -0.43892093	         10.42071909	         -0.23580572	
          0.63000000	         -0.59565853	         10.44296646	         -0.02401428	
          0.64000000	         -0.75189891	         10.46655478	          0.23544600	
          0.65000000	         -0.88497846	         10.49032847	          0.43587792	
          0.66000000	         -1.01383561	         10.51304746	          0.63439245	
          0.67000000	         -1.18998810	         10.54092168	          0.77510930	
          0.68000000	         -1.40068347	         10.57424987	          0.86433501	
          0.69000000	         -1.61117106	         10.61370693	          0.94050939	
          0.70000000	         -1.79181739	         10.65762278	          1.01434294	
          0.71000000	         -1.94017486	         10.70454220	          1.09094012	
          0.72000000	         -2.06250189	         10.75345745	          1.15416353	
          0.73000000	         -2.17143401	         10.80481077	          1.19129152	
          0.74000000	         -2.26850777	         10.85818823	          1.20238505	
          0.75000000	         -2.35285565	         10.91334041	          1.19334301	
          0.76000000	         -2.42318548	         10.96942365	          1.17186497	
          0.77000000	         -2.48052542	         11.02558046	          1.14417325	
          0.78000000	         -2.52885443	         11.08107975	          1.11545081	
          0.79000000	         -2.57285635	         11.13546057	          1.08912423	
          0.80000000	         -2.61743350	         11.18851044	          1.07005151	
          0.81000000	         -2.66591093	         11.24031475	          1.05974349	
          0.82000000	         -2.72144803	         11.29134345	          1.06157171	
          0.83000000	         -2.78491897	         11.34221917	          1.07607377	
          0.84000000	         -2.85607681	         11.39375280	          1.10286987	
          0.85000000	         -2.93299326	         11.44671594	          1.13981805	
          0.86000000	         -3.01268725	         11.50175315	          1.18447035	
          0.87000000	         -3.09155109	         11.55927997	          1.23444386	
          0.88000000	         -3.16596432	         11.61940744	          1.28811404	
          0.89000000	         -3.23280877	         11.68197559	          1.34492883	
          0.90000000	         -3.28954876	         11.74655424	          1.40562274	
          0.91000000	         -3.33450522	         11.81255292	          1.47210995	
          0.92000000	         -3.36703455	         11.87938138	          1.54735778	
          0.93000000	         -3.38716807	         11.94651972	          1.63551273	
          0.94000000	         -3.39561420	         12.01364679	          1.74110622	
          0.95000000	         -3.39348303	         12.08065742	          1.86739256	
          0.96000000	         -3.38143142	         12.14756052	          2.01457234	
          0.97000000	         -3.35887368	         12.21431229	          2.17865005	
          0.98000000	         -3.32365287	         12.28062766	          2.35160934	
          0.99000000	         -3.27244096	         12.34585925	          2.52320309	
          1.00000000	         -3.20161957	         12.40896717	          2.68375306	
          1.01000000	         -3.10798379	         12.46851139	          2.82644021	
          1.02000000	         -2.98914642	         12.52267243	          2.94832195	
          1.03000000	         -2.84400761	         12.56939475	          3.05028114	
          1.04000000	         -2.67294777	         12.60659877	          3.13602059	
          1.05000000	         -2.47755628	         12.63233952	          3.21044091	
          1.06000000	         -2.25995901	         12.64486111	          3.27827546	
          1.07000000	         -2.02218153	         12.64258657	          3.34335491	
          1.08000000	         -1.76582741	         12.62408419	          3.40835693	
          1.09000000	         -1.49203040	         12.58802706	          3.47496848	
          1.10000000	         -1.20161543	         12.53316266	          3.54443381	
          1.11000000	         -0.89535783	         12.45830488	          3.61824279	
          1.12000000	         -0.57427156	         12.36237085	          3.69865016	
          1.13000000	         -0.23983445	         12.24445238	          3.78878107	
          1.14000000	          0.10594196	         12.10389579	          3.89234323	
          1.15000000	          0.46060240	         11.94034255	          4.01297747	
          1.16000000	          0.82139916	         11.75370612	          4.15337461	
          1.17000000	          1.18548270	         11.54410071	          4.31448132	
          1.18000000	          1.55014007	         11.31176542	          4.49516186	
          1.19000000	          1.91300485	         11.05701860	          4.69240609	
          1.20000000	          2.27216583	         10.78024631	          4.90189538	
          1.21000000	          2.62620147	         10.48191157	          5.11875854	
          1.22000000	          2.97411051	         10.16257931	          5.33839444	
          1.23000000	          3.31500302	          9.82295736	          5.55711011	
          1.24000000	          3.64755141	          9.46395433	          5.77233262	
          1.25000000	          3.96981584	          9.08671889	          5.98240179	
          1.26000000	          4.28061595	          8.69270323	          6.18711561	
          1.27000000	          4.57937635	          8.28368412	          6.38734047	
          1.28000000	          4.86244546	          7.86172124	          6.58210721	
          1.29000000	          5.13306763	          7.42875241	          6.77032051	
          1.30000000	          5.39093973	          6.98716911	          6.95167933	
          1.31000000	          5.63476735	          6.53980407	          7.12691583	
          1.32000000	          5.86601505	          6.08946639	          7.29605939	
